{
  "accessors": [
    {
      "bufferView": 2,
      "componentType": 5126,
      "count": 730,
      "max": [
        4.088766098022461,
        2.8391408920288086,
        31.330549240112305
      ],
      "min": [
        -4.0887770652771,
        -2.847642183303833,
        -0.669169545173645
      ],
      "type": "VEC3"
    },
    {
      "bufferView": 2,
      "byteOffset": 8760,
      "componentType": 5126,
      "count": 730,
      "max": [
        1.0,
        1.0,
        1.0
      ],
      "min": [
        -1.0,
        -1.0,
        -1.0
      ],
      "type": "VEC3"
    },
    {
      "bufferView": 1,
      "componentType": 5126,
      "count": 730,
      "max": [
        0.7864785194396973,
        0.9892501831054688
      ],
      "min": [
        0.009519241750240326,
        0.006310446187853813
      ],
      "type": "VEC2"
    },
    {
      "bufferView": 1,
      "byteOffset": 5840,
      "componentType": 5126,
      "count": 730,
      "max": [
        0.7864785194396973,
        0.9892501831054688
      ],
      "min": [
        0.009519241750240326,
        0.006310446187853813
      ],
      "type": "VEC2"
    },
    {
      "bufferView": 0,
      "componentType": 5125,
      "count": 1362,
      "type": "SCALAR"
    }
  ],
  "asset": {
    "extras": {
      "author": "RealtimeModels (https://sketchfab.com/realtimemodels)",
      "license": "SKETCHFAB Standard (https://sketchfab.com/licenses)",
      "source": "https://sketchfab.com/3d-models/high-voltage-pole-d57e991daee64d3dae1404f76af83a14",
      "title": "High Voltage Pole"
    },
    "generator": "Sketchfab-15.70.0",
    "version": "2.0"
  },
  "bufferViews": [
    {
      "buffer": 0,
      "byteLength": 5448,
      "name": "floatBufferViews",
      "target": 34963
    },
    {
      "buffer": 0,
      "byteLength": 11680,
      "byteOffset": 5448,
      "byteStride": 8,
      "name": "floatBufferViews",
      "target": 34962
    },
    {
      "buffer": 0,
      "byteLength": 17520,
      "byteOffset": 17128,
      "byteStride": 12,
      "name": "floatBufferViews",
      "target": 34962
    }
  ],
  "buffers": [
    {
      "byteLength": 34648,
      "uri": "scene.bin"
    }
  ],
  "extensionsRequired": [
    "KHR_materials_pbrSpecularGlossiness"
  ],
  "extensionsUsed": [
    "KHR_materials_pbrSpecularGlossiness"
  ],
  "images": [
    {
      "uri": "textures/HIGH_VOLTAGE_POLE_diffuse.png"
    }
  ],
  "materials": [
    {
      "alphaCutoff": 0.4,
      "alphaMode": "MASK",
      "extensions": {
        "KHR_materials_pbrSpecularGlossiness": {
          "diffuseFactor": [
            1.0,
            1.0,
            1.0,
            1.0
          ],
          "diffuseTexture": {
            "index": 0
          },
          "glossinessFactor": 0.10702864035024488,
          "specularFactor": [
            0.0,
            0.0,
            0.0
          ]
        }
      },
      "name": "HIGH_VOLTAGE_POLE"
    }
  ],
  "meshes": [
    {
      "name": "HIGH_VOLTAGE_POLE_HIGH_VOLTAGE_POLE_0",
      "primitives": [
        {
          "attributes": {
            "NORMAL": 1,
            "POSITION": 0,
            "TEXCOORD_0": 2,
            "TEXCOORD_1": 3
          },
          "indices": 4,
          "material": 0,
          "mode": 4
        }
      ]
    }
  ],
  "nodes": [
    {
      "children": [
        1
      ],
      "matrix": [
        1.25,
        0.0,
        0.0,
        0.0,
        0.0,
        2.7755575615628914e-16,
        -1.25,
        0.0,
        0.0,
        1.25,
        2.7755575615628914e-16,
        0.0,
        0.0,
        0.0,
        0.0,
        1.0
      ],
      "name": "Sketchfab_model"
    },
    {
      "children": [
        2
      ],
      "matrix": [
        0.009999999776482582,
        0.0,
        0.0,
        0.0,
        0.0,
        0.0,
        0.009999999776482582,
        0.0,
        0.0,
        -0.009999999776482582,
        0.0,
        0.0,
        0.0,
        0.0,
        0.0,
        1.0
      ],
      "name": "80d010fb326441f88c9600b974b91d37.fbx"
    },
    {
      "children": [
        3
      ],
      "name": "RootNode"
    },
    {
      "children": [
        4
      ],
      "matrix": [
        100.0,
        0.0,
        0.0,
        0.0,
        0.0,
        2.220446049250313e-14,
        -100.0,
        0.0,
        0.0,
        100.0,
        2.220446049250313e-14,
        0.0,
        579048.9375,
        -102.71886444091797,
        368283.5625,
        1.0
      ],
      "name": "HIGH_VOLTAGE_POLE"
    },
    {
      "mesh": 0,
      "name": "HIGH_VOLTAGE_POLE_HIGH_VOLTAGE_POLE_0"
    }
  ],
  "samplers": [
    {
      "magFilter": 9729,
      "minFilter": 9987,
      "wrapS": 10497,
      "wrapT": 10497
    }
  ],
  "scene": 0,
  "scenes": [
    {
      "name": "Sketchfab_Scene",
      "nodes": [
        0
      ]
    }
  ],
  "textures": [
    {
      "sampler": 0,
      "source": 0
    }
  ]
}
